<svg width="512" height="512" viewBox="0 0 512 512" fill="none" xmlns="http://www.w3.org/2000/svg">
  <!-- Capacete/Elmo estilo Minerva -->
  <defs>
    <linearGradient id="goldGradient" x1="0%" y1="0%" x2="100%" y2="100%">
      <stop offset="0%" style="stop-color:#F4D03F;stop-opacity:1" />
      <stop offset="50%" style="stop-color:#D4AF37;stop-opacity:1" />
      <stop offset="100%" style="stop-color:#C5A028;stop-opacity:1" />
    </linearGradient>
  </defs>
  
  <!-- Perfil do capacete/elmo da Minerva -->
  <path d="M 256 80 
           C 200 80, 160 120, 150 180
           L 140 220
           C 135 240, 140 260, 155 270
           L 180 290
           C 190 298, 200 300, 210 295
           L 230 320
           C 235 330, 240 340, 240 350
           L 240 400
           C 240 410, 245 420, 255 425
           C 265 420, 270 410, 270 400
           L 270 350
           C 270 340, 275 330, 280 320
           L 300 295
           C 310 300, 320 298, 330 290
           L 355 270
           C 370 260, 375 240, 370 220
           L 360 180
           C 350 120, 310 80, 256 80 Z"
        fill="url(#goldGradient)" 
        stroke="#B8860B" 
        stroke-width="3"/>
  
  <!-- Crista do capacete -->
  <path d="M 256 60
           L 250 80
           L 262 80
           Z"
        fill="url(#goldGradient)"
        stroke="#B8860B"
        stroke-width="2"/>
  
  <!-- Detalhes decorativos -->
  <ellipse cx="200" cy="200" rx="8" ry="12" fill="#C5A028"/>
  <ellipse cx="180" cy="240" rx="6" ry="10" fill="#C5A028"/>
</svg>
